<?xml version="1.0" encoding="UTF-8"?>
<svg id="Layer_1" data-name="Layer 1" xmlns="http://www.w3.org/2000/svg" viewBox="0 0 65.25 39.96">
  <defs>
    <style>
      .cls-1, .cls-2 {
        stroke-width: 0px;
      }

      .cls-1, .cls-3 {
        fill: #35d0ba;
      }

      .cls-2 {
        fill: #fefed5;
      }

      .cls-3 {
        font-family: Impact, Impact;
        font-size: 4.07px;
      }
    </style>
  </defs>
  <g>
    <path class="cls-1" d="M15.46,7.35c0,1.17,0,2.27,0,3.37,0,2.42.02,4.85-.01,7.27,0,.65.15.96.85,1.18,1.21.38,2.47.83,3.51,1.55,3.25,2.25,3.28,7.74.05,10.04-1.12.8-2.48,1.29-3.77,1.84-.45.19-.67.36-.64.86.03.63.09,1.27-.03,1.88-.06.34-1.34.35-1.39.02-.11-.73-.03-1.49-.03-2.34h-3.05c0,.74.06,1.52-.03,2.28-.04.34-1.36.5-1.4.02-.07-.87.2-1.95-.22-2.56-.39-.57-1.54-.57-2.29-.94-3.34-1.62-4.55-4.75-4.48-8.07,0-.27,1.29-.3,1.36,0,.2.88.17,1.82.39,2.7.62,2.51,2.81,4.46,5.16,4.65.02-.27.06-.55.06-.82,0-3.49-.02-6.99.02-10.48,0-.65-.2-.97-.82-1.13-1.54-.41-3-1.01-4.05-2.26-2.52-3.01-1.59-7.68,1.88-9.53.6-.32,1.25-.65,1.91-.77.92-.17,1.17-.63,1.07-1.48-.06-.53-.1-1.09.03-1.6.09-.35,1.32-.33,1.4.02.11.54.06,1.13.02,1.69-.04.59.17.88.8.85.69-.03,1.38,0,2.25,0,0-.78,0-1.55,0-2.32,0-.57,1.53-.5,1.46,0-.24,1.74.21,2.7,2.1,3.41,2.94,1.12,4,3.81,4.13,6.84.01.3-1.3.38-1.35.06-.19-1.38-.37-2.74-1.25-3.9-.9-1.19-2.03-2.02-3.62-2.32ZM15.52,20.42v10.79c2.76-.19,5.11-2.46,5.27-5.05.18-3.03-1.62-5.03-5.27-5.74ZM9.42,17.29V7.38c-2.63.25-4.56,2.36-4.76,4.84-.24,2.92,2.41,4.77,4.76,5.08ZM13.88,31.48c.03-.05.08-.11.08-.16.01-3.62.03-7.24.01-10.86,0-.19-.21-.49-.37-.54-.83-.23-1.68-.39-2.65-.6,0,.5,0,.84,0,1.18,0,2.87,0,5.73,0,8.6q0,2.8,2.84,2.43s.05-.03.08-.04ZM13.99,18.39c0-.36,0-.7,0-1.04,0-2.8,0-5.6,0-8.41,0-2.09,0-2.07-2.12-1.99-.68.02-.93.24-.92.94.03,2.42.01,4.85.01,7.27q0,2.81,2.79,3.28s.06-.01.24-.05Z"/>
    <g>
      <path class="cls-2" d="M26.42,9.96c0-3.74,1.64-6.37,4.59-6.37s4.59,2.63,4.59,6.37-1.64,6.37-4.59,6.37-4.59-2.63-4.59-6.37ZM32.28,9.96c0-1.96-.32-3.3-1.28-3.3s-1.26,1.35-1.26,3.3.3,3.3,1.26,3.3,1.28-1.35,1.28-3.3Z"/>
      <path class="cls-2" d="M36.57,3.84h3.74c3.15,0,4.25,2.09,4.25,4.32s-1.2,4.37-4.18,4.37h-.66v3.56h-3.15V3.84ZM41.34,8.15c0-.91-.35-1.6-1.23-1.6h-.39v3.24h.39c.93,0,1.23-.71,1.23-1.64Z"/>
      <path class="cls-2" d="M45.43,3.84h6.22v2.97h-3.07v1.87h2.19v2.38h-2.19v2.06h3.07v2.97h-6.22V3.84Z"/>
      <path class="cls-2" d="M52.78,3.84h2.63l2.83,6.31V3.84h2.88v12.24h-2.63l-2.83-6.34v6.34h-2.88V3.84Z"/>
      <path class="cls-2" d="M26.64,24.25c0-3.89,2.11-6.97,5.36-6.97.96,0,1.89.31,2.47.87l.05,4.1c-.65-1.11-1.23-1.67-2.05-1.67-1.25,0-2.25,1.43-2.25,3.74,0,2.14.87,3.38,2.05,3.38.78,0,1.54-.45,2.36-1.71l-.38,3.98c-.53.65-1.51,1.03-2.54,1.03-2.89,0-5.07-2.81-5.07-6.75Z"/>
      <path class="cls-2" d="M35.82,24.14c0-4.03,1.76-6.86,4.94-6.86s4.94,2.83,4.94,6.86-1.76,6.86-4.94,6.86-4.94-2.83-4.94-6.86ZM42.14,24.14c0-2.11-.34-3.56-1.38-3.56s-1.36,1.45-1.36,3.56.33,3.56,1.36,3.56,1.38-1.45,1.38-3.56Z"/>
      <path class="cls-2" d="M46.77,17.55h3.5v13.18h-3.5v-13.18Z"/>
      <path class="cls-2" d="M52.21,17.55h2.83l3.05,6.79v-6.79h3.1v13.18h-2.83l-3.05-6.83v6.83h-3.1v-13.18Z"/>
    </g>
  </g>
  <text class="cls-3" transform="translate(25.54 36.8)"><tspan x="0" y="0">LIVE CURRENCY PRICES</tspan></text>
</svg>